<?xml version="1.0" encoding="UTF-8" standalone="no"?>
<svg
   width="228.00101"
   height="281"
   viewBox="0 0 228.00101 281"
   version="1.1"
   xml:space="preserve"
   style="clip-rule:evenodd;fill-rule:evenodd;stroke-linejoin:round;stroke-miterlimit:2"
   id="svg2772"
   sodipodi:docname="aik-logo-fixed.svg"
   inkscape:version="1.2 (dc2aedaf03, 2022-05-15)"
   xmlns:inkscape="http://www.inkscape.org/namespaces/inkscape"
   xmlns:sodipodi="http://sodipodi.sourceforge.net/DTD/sodipodi-0.dtd"
   xmlns="http://www.w3.org/2000/svg"
   xmlns:svg="http://www.w3.org/2000/svg"><defs
   id="defs2776" /><sodipodi:namedview
   id="namedview2774"
   pagecolor="#ffffff"
   bordercolor="#666666"
   borderopacity="1.0"
   inkscape:showpageshadow="2"
   inkscape:pageopacity="0.0"
   inkscape:pagecheckerboard="0"
   inkscape:deskcolor="#d1d1d1"
   showgrid="false"
   inkscape:zoom="9.5019046"
   inkscape:cx="115.76626"
   inkscape:cy="153.33768"
   inkscape:window-width="1918"
   inkscape:window-height="2054"
   inkscape:window-x="1910"
   inkscape:window-y="0"
   inkscape:window-maximized="0"
   inkscape:current-layer="layer1" />
    
<g
   inkscape:groupmode="layer"
   id="layer11"
   inkscape:label="Edge.Cuts"><path
     d="m 141.741,282.13 0.038,0.002 h 0.022 l 0.188,-0.007 c 0.435,-0.028 0.859,-0.157 1.237,-0.378 36.172,-21.031 44.049,-40.125 45.479,-49.856 8.578,5.395 19.369,2.805 29.713,-3.193 17.11,-9.923 32.873,-28.868 32.873,-28.868 0.845,-1.017 0.874,-2.484 0.07,-3.535 -24.368,-31.813 -22.751,-51.132 -22.751,-51.132 0.008,-0.09 0.013,-0.181 0.013,-0.272 0,-11.301 2.359,-18.071 5.679,-22.012 4.139,8.176 11.261,8.214 11.261,8.214 0.035,0.001 0.071,0.002 0.106,0.002 2.781,0 4.724,-0.843 6.111,-1.931 3.342,-2.62 3.455,-6.981 3.455,-6.981 10e-4,-0.021 10e-4,-0.043 10e-4,-0.064 0,-2.758 -0.769,-4.72 -1.778,-6.138 0.045,-0.447 -0.017,-0.906 -0.192,-1.339 L 243.34,90.079 c -0.431,-1.067 -1.464,-1.767 -2.615,-1.772 -11.257,-0.053 -18.642,0.573 -21.616,0.888 0.001,0 -5.613,-6.017 -5.613,-6.017 3.873,-7.753 6.122,-19.381 6.122,-19.381 0.189,-0.989 -0.162,-2.004 -0.92,-2.667 L 195.376,40.776 c -0.382,-0.333 -0.84,-0.553 -1.323,-0.645 -1.627,-2.199 -4.245,-3.627 -7.202,-3.627 -4.945,0 -8.946,3.993 -8.946,8.908 0,3.504 2.034,6.54 4.994,7.993 -3.171,2.555 -6.793,4.211 -10.386,5.368 -0.714,-2.401 -0.71,-4.831 -0.71,-4.831 0,0 0.076,-2.616 1.602,-6.733 0,-0.001 0,-0.001 0,-0.002 1.418,-3.832 0.915,-6.455 -0.111,-8.254 10e-4,0.002 2.503,-20.23 2.503,-20.23 0,0 2.781,-2.161 2.781,-2.161 0.595,-0.463 0.981,-1.143 1.073,-1.891 l 0.902,-7.292 c 0.092,-0.747 -0.116,-1.5 -0.579,-2.093 -0.463,-0.593 -1.143,-0.977 -1.89,-1.069 l -4.856,-0.594 c -0.636,-0.078 -1.249,0.062 -1.764,0.36 -0.453,-0.492 -1.069,-0.809 -1.739,-0.891 l -4.754,-0.579 c -0.695,-0.085 -1.361,0.089 -1.902,0.447 -0.44,-0.425 -1.01,-0.699 -1.624,-0.774 L 156.587,1.594 C 155.82,1.5 155.086,1.723 154.518,2.16 154.016,1.71 153.354,1.437 152.628,1.437 h -4.891 c -0.641,0 -1.232,0.213 -1.706,0.571 -0.494,-0.421 -1.135,-0.675 -1.835,-0.675 h -4.79 c -0.7,0 -1.341,0.254 -1.835,0.675 -0.474,-0.358 -1.065,-0.571 -1.705,-0.571 h -4.893 c -0.687,0 -1.317,0.245 -1.807,0.652 -0.536,-0.344 -1.19,-0.509 -1.871,-0.426 l -4.856,0.592 C 121.824,2.33 121.255,2.604 120.815,3.029 120.273,2.67 119.606,2.495 118.91,2.58 l -4.752,0.581 c -0.67,0.082 -1.286,0.4 -1.739,0.892 -0.515,-0.298 -1.127,-0.437 -1.762,-0.359 l -4.858,0.592 c -0.747,0.091 -1.427,0.476 -1.89,1.069 -0.463,0.593 -0.672,1.346 -0.58,2.093 l 0.902,7.294 c 0.092,0.748 0.479,1.428 1.074,1.891 l 2.783,2.161 c 0,0 2.467,19.971 2.467,19.971 -1.105,1.805 -1.684,4.477 -0.216,8.443 1.524,4.12 1.601,6.736 1.601,6.736 0,0 0.005,2.451 -0.725,4.876 -3.657,-1.164 -7.351,-2.84 -10.576,-5.451 2.921,-1.467 4.921,-4.482 4.921,-7.957 0,-4.916 -4,-8.908 -8.945,-8.908 -2.97,0 -5.598,1.44 -7.222,3.656 -0.433,0.105 -0.842,0.314 -1.188,0.616 L 64.883,61.13 c -0.759,0.663 -1.109,1.678 -0.921,2.667 0,0 2.25,11.628 6.123,19.381 0,0 -5.614,6.017 -5.614,6.017 -2.973,-0.315 -10.358,-0.941 -21.615,-0.888 -1.151,0.005 -2.184,0.705 -2.615,1.772 l -9.927,24.563 c -0.155,0.386 -0.222,0.793 -0.202,1.194 -1.061,1.428 -1.885,3.429 -1.885,6.283 0,0.022 0,0.043 0.001,0.065 0,0 0.114,4.36 3.455,6.98 1.387,1.088 3.331,1.931 6.111,1.931 0.035,0 0.071,-0.001 0.106,-0.002 0,0 7.175,-0.038 11.306,-8.299 3.35,3.919 5.751,10.701 5.751,22.097 0,0.091 0.004,0.182 0.013,0.272 0,0 1.619,19.319 -22.751,51.132 -0.805,1.05 -0.776,2.518 0.07,3.535 0,0 15.762,18.945 32.873,28.868 10.344,5.998 21.136,8.588 29.714,3.193 1.43,9.731 9.307,28.825 45.478,49.856 0.398,0.232 0.845,0.362 1.304,0.381 l 0.024,0.001 z"
     style="clip-rule:evenodd;fill:#00eb00;fill-opacity:0.37;fill-rule:evenodd;stroke-linejoin:round;stroke-miterlimit:2"
     id="path2700"
     transform="translate(-28.2271,-1.333)" /></g><g
   inkscape:groupmode="layer"
   id="layer10"
   inkscape:label="F.SilkS"><g
     transform="matrix(0.17636058,-0.00890911,0.00890911,0.17636058,-103.58071,-8.1020081)"
     id="g2705"
     style="clip-rule:evenodd;fill-rule:evenodd;stroke-linejoin:round;stroke-miterlimit:2">
                
            </g><g
     transform="matrix(-0.17636058,-0.00890911,-0.00890911,0.17636058,331.15209,-8.1020081)"
     id="g2709"
     style="clip-rule:evenodd;fill-rule:evenodd;stroke-linejoin:round;stroke-miterlimit:2">
                
            </g><g
     transform="translate(-28.2271,-1.333)"
     id="g2735"
     style="clip-rule:evenodd;fill-rule:evenodd;stroke-linejoin:round;stroke-miterlimit:2">
                <path
   d="m 97.552,230.35 c 1.379,-3.403 3.995,-7.946 8.155,-8.01 0,0 6.664,0.103 6.664,6.623 0,0 -0.105,5.9 -5.831,5.9 0,0 -1.872,15.089 35.331,37.008 l -0.07,0.041 h 0.139 l -0.069,-0.041 c 37.202,-21.919 35.329,-37.008 35.329,-37.008 -5.728,0 -5.831,-5.9 -5.831,-5.9 0,-6.52 6.663,-6.623 6.663,-6.623 2.453,0.037 4.217,1.407 5.47,3.144 1.303,1.806 2.054,4.008 2.451,5.52 -1.125,8.729 -8.148,27.359 -44.152,48.293 h -0.022 C 104.85,257.824 98.411,238.776 97.552,230.35 Z m -2.153,-2.362 c -21.13,17.942 -60.93,-29.969 -60.93,-29.969 25.266,-32.982 23.322,-53.128 23.322,-53.128 0,-36.845 -24.848,-29.187 -24.848,-29.187 l 9.926,-24.563 c 14.715,-0.069 22.697,1.035 22.697,1.035 l 7.982,-8.555 C 69.246,76.376 66.747,63.266 66.747,63.266 L 90.069,42.912 c 4.788,13.592 16.241,18.009 25.89,20.078 9.648,2.07 25.842,10.419 25.842,10.419 0,0 16.172,-8.349 25.821,-10.419 9.649,-2.069 21.103,-6.486 25.89,-20.078 l 23.322,20.354 c 0,0 -2.499,13.11 -6.802,20.355 l 7.983,8.555 c 0,0 7.982,-1.104 22.697,-1.035 l 9.926,24.563 c 0,0 -24.85,-7.658 -24.85,29.187 0,0 -1.941,20.146 23.322,53.128 0,0 -39.972,48.12 -61.064,29.852 -1.401,-2.222 -1.684,-4.919 -1.684,-7.499 0,-6.622 6.144,-7.14 6.144,-7.14 6.141,0 5.62,5.897 5.62,5.897 0,4.349 -2.603,5.693 -2.603,5.693 14.474,6.21 46.436,-27.634 46.436,-27.634 -22.906,-30.217 -21.447,-52.851 -21.447,-52.851 0,-34.912 22.211,-34.774 22.211,-34.774 l -4.719,-12.972 c -14.576,0 -20.685,2.484 -20.685,2.484 L 202.604,84.172 c 7.218,-11.591 7.914,-19.181 7.914,-19.181 L 195.245,52.019 c -5.969,9.935 -15.41,13.524 -25.68,16.422 -10.274,2.897 -27.765,11.591 -27.765,11.591 0,0 -17.354,-8.694 -27.627,-11.591 C 103.901,65.543 94.462,61.954 88.491,52.019 l -15.27,12.972 c 0,0 0.694,7.59 7.913,19.181 L 66.419,99.075 c 0,0 -6.107,-2.484 -20.684,-2.484 l -4.719,12.972 c 0,0 22.212,-0.138 22.212,34.774 0,0 1.457,22.632 -21.449,52.851 0,0 31.965,33.844 46.437,27.634 0,0 -2.603,-1.344 -2.603,-5.693 0,0 -0.52,-5.897 5.622,-5.897 0,0 6.143,0.516 6.143,7.14 0,2.073 -0.824,5.111 -1.979,7.616 z"
   style="fill:#ffffff"
   id="path2733" />
            </g><g
     transform="translate(-28.2271,-1.333)"
     id="g2743"
     style="clip-rule:evenodd;fill-rule:evenodd;stroke-linejoin:round;stroke-miterlimit:2">
                <path
   d="m 44.8,120.155 c -2.49,6.49 -7.306,7.09 -7.657,7.125 -1.322,-0.01 -2.273,-0.334 -2.938,-0.856 -1.403,-1.1 -1.517,-2.894 -1.526,-3.108 0.005,-1.445 0.338,-2.488 0.87,-3.223 1.085,-1.498 2.862,-1.641 2.989,-1.649 l 0.004,-0.001 c 3.91,-0.151 6.732,0.917 8.258,1.712 z m 52.949,-72.01 c -2.153,0 -3.904,-1.728 -3.904,-3.868 0,-2.14 1.751,-3.867 3.904,-3.867 2.153,0 3.905,1.727 3.905,3.867 0,2.14 -1.752,3.868 -3.905,3.868 z"
   style="fill:#ffffff"
   id="path2741" />
            </g><g
     transform="translate(-28.2271,-1.333)"
     id="g2747"
     style="clip-rule:evenodd;fill-rule:evenodd;stroke-linejoin:round;stroke-miterlimit:2">
                <path
   d="m 239.424,120.186 c 1.526,-0.794 4.348,-1.862 8.256,-1.712 l 0.002,10e-4 c 0.095,0.005 1.896,0.137 2.991,1.649 0.532,0.734 0.865,1.778 0.87,3.221 -0.009,0.213 -0.121,2.009 -1.526,3.111 -0.664,0.521 -1.616,0.846 -2.937,0.856 -0.343,-0.035 -5.164,-0.63 -7.656,-7.126 z M 185.357,47.555 c -2.153,0 -3.906,-1.728 -3.906,-3.868 0,-2.14 1.753,-3.868 3.906,-3.868 2.152,0 3.903,1.728 3.903,3.868 0,2.14 -1.751,3.868 -3.903,3.868 z"
   style="fill:#ffffff"
   id="path2745" />
            </g><g
     transform="matrix(0.113386,0,0,0.113386,-29.217897,-2.3237975)"
     id="g2755"
     style="clip-rule:evenodd;fill-rule:evenodd;stroke-linejoin:round;stroke-miterlimit:2">
                <path
   d="M 1037.41,1892.61 2087.72,850.248 2037.45,845.331 1010,1865 Z M 424.859,1827.49 1597.31,662.812 1569.89,635.208 397.438,1799.88 Z"
   style="fill:#ffffff"
   id="path2753" />
            </g></g><g
   inkscape:groupmode="layer"
   id="layer1"
   inkscape:label="F.Mask"
   style="display:inline;fill:#d9e128;fill-opacity:1"><g
     transform="translate(-28.2271,-1.333)"
     id="g2759"
     style="clip-rule:evenodd;fill-rule:evenodd;stroke-linejoin:round;stroke-miterlimit:2;fill:#d9e128;fill-opacity:1">
                <path
   d="m 97.206,122.572 -7.562,25.159 1.761,0.529 7.564,-25.166 c -0.599,-0.146 -1.187,-0.321 -1.763,-0.522 z m -4.691,-2.429 -12.113,18.729 1.544,0.999 12.117,-18.737 c -0.533,-0.306 -1.049,-0.637 -1.548,-0.991 z m 15.318,2.992 c -0.592,0.139 -1.195,0.25 -1.808,0.332 l 1.971,10.552 1.807,-0.338 z m -18.685,-6.058 -13.203,12.4 1.258,1.34 13.212,-12.408 c -0.443,-0.423 -0.866,-0.868 -1.267,-1.332 z m 23.384,4.267 c -0.537,0.293 -1.089,0.559 -1.656,0.799 l 2.982,6.122 1.652,-0.805 z m -26.011,-8.235 -11.829,6.475 0.883,1.612 11.838,-6.48 c -0.322,-0.519 -0.621,-1.055 -0.892,-1.607 z m 33.635,0.574 c -0.29,0.542 -0.607,1.067 -0.947,1.576 l 3.052,1.809 0.937,-1.581 z m 1.7,-4.472 c -0.143,0.6 -0.315,1.189 -0.515,1.765 l 6.997,2.018 0.509,-1.767 z m 0.49,-5.146 c 0.011,0.266 0.017,0.535 0.017,0.806 0,0.346 -0.009,0.69 -0.028,1.032 l 12.793,0.076 0.011,-1.838 z m -37.634,-1.166 -8.155,-0.457 -0.103,1.835 8.155,0.457 c 0.005,-0.62 0.039,-1.232 0.103,-1.835 z m 36.522,-4.437 c 0.209,0.573 0.391,1.159 0.544,1.756 l 20.494,-6.29 -0.54,-1.758 z m -35.046,-1.117 -4.376,-1.655 -0.651,1.719 4.37,1.653 c 0.191,-0.585 0.411,-1.158 0.657,-1.717 z m 2.891,-4.599 -2.678,-2.039 -1.114,1.463 2.668,2.031 c 0.351,-0.503 0.726,-0.989 1.124,-1.455 z m 28.269,-0.613 c 0.417,0.449 0.813,0.918 1.185,1.405 l 8.58,-7.143 -1.176,-1.413 z m -3.05,-2.646 c 0.504,0.351 0.99,0.725 1.457,1.122 l 4.047,-5.199 -1.451,-1.129 z m -16.546,-2.499 -3.665,-9.756 -1.72,0.646 3.661,9.749 c 0.561,-0.239 1.136,-0.453 1.724,-0.639 z m 4.097,-0.812 -2.267,-16.53 -1.822,0.25 2.268,16.524 c 0.597,-0.11 1.205,-0.192 1.821,-0.244 z m 2.684,-0.042 c 0.618,0.034 1.228,0.097 1.829,0.188 l 1.192,-11.332 -1.828,-0.192 z"
   style="fill:#d9e128;fill-opacity:1"
   id="path2757" />
            </g><g
     id="g818"
     style="clip-rule:evenodd;fill-rule:evenodd;stroke-linejoin:round;stroke-miterlimit:2;fill:#d9e128;fill-opacity:1"><path
       d="m 1149.09,286.462 c 3.65,-0.146 7.76,-0.287 12.27,-0.404 l -0.85,-32.413 c -4.67,0.121 -8.93,0.267 -12.72,0.419 z m -8.18,-36.688 c 3.65,-0.166 7.73,-0.323 12.2,-0.448 l -0.9,-32.411 c -4.68,0.13 -8.96,0.294 -12.78,0.469 z m 19.54,-0.615 c 3.86,-0.069 7.95,-0.111 12.22,-0.116 l -0.03,-32.425 c -4.47,0.005 -8.74,0.049 -12.77,0.121 z"
       style="clip-rule:evenodd;fill:#d9e128;fill-rule:evenodd;stroke-linejoin:round;stroke-miterlimit:2;fill-opacity:1"
       id="path2703"
       transform="matrix(0.17636058,-0.00890911,0.00890911,0.17636058,-103.58071,-8.1020081)" /><path
       d="m 1149.09,286.462 c 3.65,-0.146 7.76,-0.287 12.27,-0.404 l -0.85,-32.413 c -4.67,0.121 -8.93,0.267 -12.72,0.419 z m -8.18,-36.688 c 3.65,-0.166 7.73,-0.323 12.2,-0.448 l -0.9,-32.411 c -4.68,0.13 -8.96,0.294 -12.78,0.469 z m 19.54,-0.615 c 3.86,-0.069 7.95,-0.111 12.22,-0.116 l -0.03,-32.425 c -4.47,0.005 -8.74,0.049 -12.77,0.121 z"
       style="clip-rule:evenodd;fill:#d9e128;fill-rule:evenodd;stroke-linejoin:round;stroke-miterlimit:2;fill-opacity:1"
       id="path2707"
       transform="matrix(-0.17636058,-0.00890911,-0.00890911,0.17636058,331.15209,-8.1020081)" /><g
       transform="translate(-28.2271,-1.333)"
       id="g2713"
       style="clip-rule:evenodd;fill-rule:evenodd;stroke-linejoin:round;stroke-miterlimit:2;fill:#d9e128;fill-opacity:1">
                <path
   d="m 118.227,37.449 c -0.578,0.112 -1.143,0.23 -1.69,0.357 0,0 -1.492,0.264 -2.702,1.387 l -2.723,-22.043 14.151,-1.727 2.57,20.806 c -1.492,0.118 -3.013,0.264 -4.513,0.443 l -1.012,-8.183 h 0.002 c 0,0 -0.057,-1.3 -1.033,-1.965 -0.416,-0.285 -0.848,-0.46 -1.832,-0.354 -0.44,0.06 -1.3,0.312 -1.723,0.786 -0.764,0.856 -0.539,2.084 -0.525,2.152 z m -3.785,-15.352 2.902,-0.353 -0.356,-2.887 -2.903,0.354 z m 5.788,-0.706 2.902,-0.353 -0.356,-2.886 -2.903,0.353 z m 7.773,-9.535 -20.418,2.493 -0.195,-0.152 c 0,0 -0.837,-6.777 -0.837,-6.777 0,0 4.127,-0.503 4.127,-0.503 0,0 0.496,4.006 0.496,4.006 l 4.243,-0.519 -0.508,-4.109 c 0,0 4.023,-0.491 4.023,-0.491 0,0 0.508,4.11 0.508,4.11 l 4.244,-0.519 -0.494,-4.006 c 0,0 4.126,-0.503 4.126,-0.503 0,0 0.838,6.776 0.838,6.776 z"
   style="fill:#d9e128;fill-opacity:1"
   id="path2711" />
            </g><g
       transform="translate(-28.2271,-1.333)"
       id="g2717"
       style="clip-rule:evenodd;fill-rule:evenodd;stroke-linejoin:round;stroke-miterlimit:2;fill:#d9e128;fill-opacity:1">
                <path
   d="m 160.59,36.719 c -1.508,-0.178 -3.044,-0.325 -4.555,-0.445 l 2.586,-20.921 14.152,1.728 -2.748,22.224 c -1.229,-1.218 -2.819,-1.499 -2.819,-1.499 -0.492,-0.112 -1,-0.217 -1.522,-0.317 l 1.042,-8.441 c 0,0 0.261,-1.275 -0.525,-2.155 -0.335,-0.375 -0.859,-0.68 -1.675,-0.782 -0.004,-0.001 -0.008,-0.002 -0.013,-0.003 -0.006,0 -0.032,-0.003 -0.038,-0.004 -0.005,0 -0.009,0 -0.012,0 -0.817,-0.097 -1.4,0.072 -1.816,0.355 -0.951,0.648 -1.03,1.899 -1.033,1.962 z m 5.845,-15.056 2.901,0.353 0.358,-2.886 -2.904,-0.353 z m -5.787,-0.708 2.901,0.354 0.358,-2.886 -2.903,-0.354 z m 15.651,-6.678 -20.418,-2.49 -0.152,-0.194 c 0,0 0.835,-6.776 0.835,-6.776 0,0 4.127,0.503 4.127,0.503 0,0 -0.494,4.006 -0.494,4.006 l 4.243,0.519 0.508,-4.109 c 0,0 4.024,0.49 4.024,0.49 0,0 -0.509,4.109 -0.509,4.109 l 4.247,0.519 0.494,-4.008 c 0,0 4.126,0.505 4.126,0.505 0,0 -0.838,6.776 -0.838,6.776 z"
   style="fill:#d9e128;fill-opacity:1"
   id="path2715" />
            </g><g
       transform="translate(-28.2271,-1.333)"
       id="g2721"
       style="clip-rule:evenodd;fill-rule:evenodd;stroke-linejoin:round;stroke-miterlimit:2;fill:#d9e128;fill-opacity:1">
                <path
   d="m 148.928,35.869 c -1.78,-0.066 -3.339,-0.1 -4.533,-0.117 v -8.296 c 0.004,-0.064 0.081,-1.314 -0.784,-2.072 -0.38,-0.333 -0.941,-0.573 -1.771,-0.573 v 0.002 l -0.039,-10e-4 c -0.83,0 -1.391,0.24 -1.771,0.573 -0.864,0.759 -0.788,2.009 -0.784,2.073 v 8.281 c -1.217,0.013 -2.788,0.043 -4.574,0.106 V 14.85 h 14.256 z M 137.371,20.164 h 2.925 v -2.907 h -2.925 z m 5.831,0 h 2.925 v -2.907 h -2.925 z m 8.884,-8.523 h -20.57 l -0.175,-0.173 c 0,0 0,-6.828 0,-6.828 0,0 4.157,0 4.157,0 0,0 0,4.036 0,4.036 h 4.275 V 4.535 c 0,0 4.055,0 4.055,0 0,0 0,4.141 0,4.141 h 4.276 V 4.64 c 0,0 4.156,0 4.156,0 0,0 0,6.828 0,6.828 z"
   style="fill:#d9e128;fill-opacity:1"
   id="path2719" />
            </g><path
       d="m 1014.77,381.668 c 0,0 223.31,-51.376 472.91,-0.848 7.01,1.42 13.86,-3.123 15.28,-10.139 1.42,-7.016 -3.12,-13.865 -10.13,-15.285 -255.4,-51.7 -483.88,0.994 -483.88,0.994 -6.97,1.607 -11.333,8.575 -9.727,15.55 1.607,6.976 8.577,11.334 15.547,9.728 z"
       style="clip-rule:evenodd;fill:#d9e128;fill-rule:evenodd;stroke-linejoin:round;stroke-miterlimit:2;fill-opacity:1"
       id="path2723"
       transform="matrix(0.113386,0,0,0.113386,-28.2271,-1.333)" /><g
       transform="translate(-28.2271,-1.8430964)"
       id="g2727"
       style="clip-rule:evenodd;fill-rule:evenodd;stroke-linejoin:round;stroke-miterlimit:2;fill:#d9e128;fill-opacity:1">
                <path
   d="m 132.065,45.74 c -0.141,-0.023 -0.287,-0.029 -0.436,-0.017 -0.483,0.038 -0.963,0.08 -1.438,0.124 -0.148,0.014 -0.29,0.045 -0.425,0.092 -0.142,-0.02 -0.287,-0.023 -0.435,-0.008 -0.484,0.049 -0.962,0.101 -1.432,0.155 -0.148,0.016 -0.29,0.05 -0.423,0.1 -0.142,-0.017 -0.287,-0.017 -0.435,10e-4 -0.486,0.059 -0.962,0.119 -1.427,0.181 -0.147,0.02 -0.288,0.056 -0.421,0.108 -0.141,-0.014 -0.287,-0.012 -0.434,0.009 -0.489,0.069 -0.964,0.138 -1.422,0.207 -0.147,0.022 -0.287,0.061 -0.418,0.115 -0.142,-0.012 -0.287,-0.007 -0.434,0.017 -0.497,0.078 -0.971,0.155 -1.418,0.231 -0.146,0.025 -0.286,0.066 -0.417,0.122 -0.142,-0.009 -0.287,-0.002 -0.433,0.024 -0.519,0.091 -0.993,0.178 -1.415,0.257 -0.146,0.027 -0.285,0.071 -0.415,0.13 -0.143,-0.007 -0.288,0.003 -0.434,0.032 -0.915,0.178 -1.431,0.292 -1.431,0.292 -0.991,0.217 -1.619,1.199 -1.401,2.19 0.217,0.99 1.198,1.618 2.189,1.401 0,0 0.487,-0.107 1.347,-0.275 0.141,-0.027 0.275,-0.07 0.401,-0.127 0.138,0.006 0.279,-0.003 0.42,-0.03 0.41,-0.076 0.87,-0.16 1.374,-0.249 0.142,-0.025 0.278,-0.065 0.405,-0.12 0.138,0.009 0.279,0.002 0.421,-0.022 0.435,-0.073 0.896,-0.149 1.38,-0.225 0.142,-0.022 0.278,-0.061 0.406,-0.113 0.138,0.011 0.28,0.007 0.422,-0.015 0.446,-0.067 0.907,-0.134 1.383,-0.201 0.143,-0.02 0.28,-0.056 0.408,-0.106 0.138,0.014 0.279,0.012 0.422,-0.007 0.452,-0.06 0.914,-0.119 1.385,-0.177 0.143,-0.017 0.28,-0.051 0.41,-0.098 0.137,0.016 0.279,0.017 0.422,0 0.455,-0.052 0.917,-0.102 1.386,-0.149 0.143,-0.015 0.281,-0.045 0.411,-0.091 0.136,0.02 0.277,0.023 0.421,0.01 0.457,-0.043 0.92,-0.083 1.386,-0.12 0.143,-0.012 0.281,-0.039 0.412,-0.082 0.136,0.023 0.277,0.029 0.42,0.019 0.31,-0.022 0.621,-0.042 0.933,-0.061 1.013,-0.06 1.786,-0.932 1.725,-1.945 -0.061,-1.012 -0.932,-1.785 -1.945,-1.725 -0.325,0.02 -0.649,0.041 -0.972,0.064 -0.149,0.01 -0.292,0.038 -0.428,0.082 z"
   style="fill:#d9e128;fill-opacity:1"
   id="path2725" />
            </g><g
       transform="matrix(0.113386,0,0,0.113386,-28.2271,-1.8430964)"
       id="g2731"
       style="clip-rule:evenodd;fill-rule:evenodd;stroke-linejoin:round;stroke-miterlimit:2;fill:#d9e128;fill-opacity:1">
                <path
   d="m 1310.12,432.879 c 1.17,0.344 2.4,0.556 3.66,0.624 3.66,0.196 7.78,0.437 12.29,0.731 1.27,0.083 2.52,0.017 3.72,-0.187 1.16,0.367 2.39,0.602 3.66,0.693 3.87,0.278 7.97,0.593 12.29,0.949 1.27,0.104 2.51,0.06 3.72,-0.125 1.16,0.387 2.38,0.643 3.65,0.756 3.95,0.351 8.05,0.734 12.28,1.154 1.26,0.126 2.51,0.102 3.72,-0.063 1.15,0.407 2.37,0.683 3.64,0.817 3.98,0.421 8.07,0.873 12.25,1.359 1.26,0.148 2.51,0.145 3.72,0.001 1.14,0.426 2.36,0.723 3.62,0.878 4,0.493 8.08,1.016 12.22,1.572 1.26,0.169 2.5,0.189 3.72,0.067 1.13,0.446 2.34,0.764 3.59,0.942 4.01,0.567 8.07,1.165 12.18,1.795 1.25,0.193 2.5,0.236 3.71,0.138 1.13,0.467 2.32,0.808 3.58,1.01 4.01,0.646 8.05,1.324 12.12,2.034 1.25,0.218 2.49,0.286 3.7,0.213 1.12,0.489 2.3,0.855 3.55,1.083 4,0.731 8.02,1.495 12.05,2.292 1.25,0.245 2.48,0.342 3.7,0.296 1.1,0.513 2.27,0.905 3.51,1.162 0.46,0.094 0.91,0.188 1.37,0.283 8.76,1.829 17.35,-3.798 19.18,-12.557 1.83,-8.759 -3.8,-17.354 -12.56,-19.183 -0.47,-0.099 -0.94,-0.197 -1.42,-0.295 -1.29,-0.267 -2.57,-0.372 -3.83,-0.326 -1.14,-0.532 -2.37,-0.934 -3.66,-1.189 -4.18,-0.827 -8.36,-1.62 -12.51,-2.379 -1.29,-0.236 -2.57,-0.312 -3.83,-0.237 -1.15,-0.505 -2.38,-0.879 -3.68,-1.105 -4.2,-0.734 -8.39,-1.435 -12.53,-2.103 -1.3,-0.209 -2.58,-0.258 -3.83,-0.157 -1.17,-0.481 -2.4,-0.829 -3.7,-1.028 -4.23,-0.65 -8.42,-1.267 -12.56,-1.852 -1.29,-0.183 -2.58,-0.207 -3.83,-0.083 -1.17,-0.458 -2.41,-0.782 -3.71,-0.956 -4.25,-0.573 -8.45,-1.112 -12.57,-1.619 -1.3,-0.159 -2.59,-0.161 -3.83,-0.014 -1.18,-0.437 -2.42,-0.738 -3.72,-0.89 -4.3,-0.499 -8.5,-0.964 -12.6,-1.397 -1.3,-0.138 -2.58,-0.117 -3.82,0.051 -1.19,-0.416 -2.44,-0.697 -3.74,-0.826 -4.34,-0.431 -8.55,-0.825 -12.61,-1.186 -1.31,-0.115 -2.59,-0.073 -3.83,0.116 -1.19,-0.397 -2.44,-0.656 -3.75,-0.764 -4.43,-0.366 -8.65,-0.689 -12.63,-0.975 -1.31,-0.094 -2.59,-0.03 -3.82,0.18 -1.2,-0.377 -2.46,-0.615 -3.77,-0.7 -4.65,-0.304 -8.89,-0.552 -12.66,-0.754 -1.32,-0.07 -2.6,0.018 -3.83,0.251 -1.21,-0.355 -2.48,-0.569 -3.79,-0.629 -8.27,-0.376 -12.9,-0.471 -12.9,-0.471 -8.94,-0.185 -16.36,6.927 -16.54,15.873 -0.19,8.946 6.93,16.359 15.87,16.545 0,0 4.34,0.091 12.09,0.444 1.27,0.058 2.51,-0.032 3.7,-0.259 z"
   style="fill:#d9e128;fill-opacity:1"
   id="path2729" />
            </g><g
       transform="matrix(0.113386,0,0,0.113386,-28.2271,-3.0871948)"
       id="g2739"
       style="clip-rule:evenodd;fill-rule:evenodd;stroke-linejoin:round;stroke-miterlimit:2;fill:#d9e128;fill-opacity:1">
                <path
   d="m 1047.24,556.659 c 0,0 162.07,-55.047 413.11,0.117 17.48,3.84 34.79,-7.232 38.63,-24.71 3.84,-17.479 -7.23,-34.787 -24.71,-38.628 -272.38,-59.852 -448.22,1.932 -448.22,1.932 -16.91,5.848 -25.9,24.327 -20.05,41.24 5.85,16.913 24.33,25.897 41.24,20.049 z"
   style="fill:#d9e128;fill-opacity:1"
   id="path2737" />
            </g><g
       transform="translate(-28.2271,-4.0673374)"
       id="g2751"
       style="clip-rule:evenodd;fill-rule:evenodd;stroke-linejoin:round;stroke-miterlimit:2;fill:#d9e128;fill-opacity:1">
                <path
   d="m 140.63,72.817 v -8.516 c 0.721,-0.003 1.456,0 2.206,0.012 v 8.572 c -0.663,0.332 -1.035,0.524 -1.035,0.524 0,0 -0.422,-0.218 -1.171,-0.592 z m 4.996,-1.301 V 64.39 c 0.723,0.029 1.459,0.065 2.206,0.109 v 5.969 c -0.796,0.373 -1.536,0.725 -2.206,1.048 z m -7.787,-0.064 c -0.673,-0.323 -1.413,-0.675 -2.206,-1.045 v -5.962 c 0.717,-0.038 1.452,-0.069 2.206,-0.093 z m 12.785,-2.266 v -4.49 c 0.725,0.06 1.461,0.127 2.206,0.202 v 3.312 c -0.755,0.328 -1.492,0.655 -2.206,0.976 z M 132.84,69.129 c -0.713,-0.32 -1.451,-0.646 -2.206,-0.973 v -3.314 c 0.712,-0.076 1.448,-0.146 2.206,-0.208 z m 22.781,-2.102 v -1.818 c 0.727,0.089 1.462,0.186 2.206,0.29 v 0.64 c -0.738,0.289 -1.475,0.586 -2.206,0.888 z m -27.778,-0.051 c -0.73,-0.3 -1.467,-0.596 -2.206,-0.885 v -0.568 c 0.7,-0.118 1.436,-0.231 2.206,-0.338 z"
   style="fill:#d9e128;fill-opacity:1"
   id="path2749" />
            </g></g><g
     id="g840"
     style="clip-rule:evenodd;fill-rule:evenodd;stroke-linejoin:round;stroke-miterlimit:2;fill:#d9e128;fill-opacity:1"><path
       d="m 1568.24,1745.2 1.91,0.03 c 40.89,0 73.99,-33.01 73.99,-73.67 0,-23.61 -11.16,-44.64 -28.52,-58.12 8.23,-10.07 13.21,-22.89 13.24,-36.79 v -0.02 c 0,-32.3 -26.25,-58.49 -58.71,-58.49 -32.47,0 -58.72,26.19 -58.72,58.47 v 0.02 c 0.03,13.9 5.01,26.73 13.25,36.81 -17.37,13.48 -28.53,34.51 -28.53,58.12 0,40.02 32.08,72.63 72.09,73.64 z m 1.91,-38.88 c 19.34,0 35.08,-15.53 35.08,-34.76 0,-19.24 -15.74,-34.76 -35.08,-34.76 -19.34,0 -35.09,15.52 -35.09,34.76 0,19.23 15.75,34.76 35.09,34.76 z m 0.05,-108.43 0.01,-1.7 c 0.02,0 0.04,0 0.07,0 10.76,0 19.63,-8.84 19.67,-19.62 -0.02,-10.83 -8.91,-19.52 -19.8,-19.52 -10.9,0 -19.8,8.7 -19.81,19.55 0.05,10.76 8.91,19.59 19.68,19.59 0.02,0 0.04,0 0.06,0 l 0.01,1.7 h 0.06 z"
       style="clip-rule:evenodd;fill:#d9e128;fill-rule:evenodd;stroke-linejoin:round;stroke-miterlimit:2;fill-opacity:1"
       id="path2761"
       transform="matrix(0.113386,0,0,0.113386,-28.2271,-1.333)" /><path
       d="m 1459.95,1719.03 v -133.27 l -44.07,36.5 h 23.89 v 96.77 z m 418.75,0 v -133.27 l -44.09,36.5 h 23.87 v 96.77 z m -151.52,-125.98 c 36.73,-0.45 35.8,51.11 35.8,51.11 0,63.44 -37.64,57.97 -37.64,57.97 -37.18,0 -33.51,-61.16 -33.51,-61.16 -0.01,-49.73 35.35,-47.92 35.35,-47.92 z m 61.05,58.42 c 0,0 8.26,-77.13 -63.81,-77.13 0,0 -55.09,-2.74 -55.09,74.39 0,0 -2.77,71.66 52.33,71.66 0,0 20.22,1.36 24.8,-6.84 0,0 0.45,20.97 -37.19,43.35 0,0 78.96,12.33 78.96,-105.43 z"
       style="clip-rule:evenodd;fill:#d9e128;fill-rule:evenodd;stroke-linejoin:round;stroke-miterlimit:2;fill-opacity:1"
       id="path2763"
       transform="matrix(0.113386,0,0,0.113386,-28.2271,-1.333)" /></g><g
     transform="translate(-28.2271,-1.333)"
     id="g2769"
     style="clip-rule:evenodd;fill-rule:evenodd;stroke-linejoin:round;stroke-miterlimit:2;display:inline;fill:#d9e128;fill-opacity:1">
                <path
   d="m 90.567,209.275 c -7.954,0.017 -8.599,5.728 -8.853,7.943 -0.155,1.346 -0.007,2.947 0.117,3.922 -4.347,-1.096 -8.789,-3.422 -12.741,-5.952 -7.205,-4.614 -12.792,-9.977 -13.312,-10.482 l -0.022,-0.022 143.976,-143.118 0.12,0.103 c 0.008,0.007 6.169,5.233 6.169,5.233 -0.636,2.504 -2.693,9.076 -8.145,16.506 l -1.012,1.38 17.753,17.666 -113.956,113.275 c -2.696,-6.436 -10.094,-6.454 -10.094,-6.454 z m 10.618,-45.257 c 28.181,16.699 33.179,14.766 33.179,14.766 l -9.579,9.659 c -3.193,-7.588 -6.664,-4.001 -6.664,-4.001 l -6.664,6.623 c -4.859,4.693 2.638,7.865 2.638,7.865 l -9.44,9.248 c 0,-7.867 -2.498,-13.25 -2.498,-13.25 -7.636,-22.63 -10.69,-21.389 -10.69,-21.389 z m -0.277,9.797 5.691,12.283 6.247,-6.211 z m 36.198,2.231 h 0.02 c 2.936,0 5.354,-2.411 5.362,-5.347 v -0.002 c 0,-2.957 -2.402,-5.354 -5.372,-5.354 -2.969,0 -5.372,2.395 -5.372,5.351 v 0.003 c 0.009,2.938 2.426,5.349 5.362,5.349 z m 0.02,-3.677 h -0.02 c -0.922,0 -1.681,-0.756 -1.685,-1.677 0.001,-0.929 0.763,-1.673 1.695,-1.673 0.932,0 1.694,0.745 1.696,1.671 -0.004,0.923 -0.764,1.679 -1.686,1.679 z M 123.615,141.44 c 0,0 2.498,-0.552 5.692,2.62 l 16.519,16.562 c 0,0 1.805,1.929 1.805,4.966 l 9.857,-9.797 c 0,0 -2.637,0.413 -4.86,-1.793 l -16.659,-16.56 c 0,0 -2.082,-1.931 -2.637,-5.381 z m 35.573,12.664 c 2.968,0 5.371,-2.399 5.371,-5.351 0,-2.952 -2.403,-5.352 -5.371,-5.352 -2.972,0 -5.37,2.4 -5.37,5.352 0,2.952 2.398,5.351 5.37,5.351 z m 0,-3.676 c -0.934,0 -1.694,-0.748 -1.694,-1.675 0,-0.928 0.76,-1.675 1.694,-1.675 0.933,0 1.694,0.747 1.694,1.675 0,0.927 -0.761,1.675 -1.694,1.675 z m -14.057,-30.447 c 0,0 2.082,-0.415 5.937,3.415 l 14.886,14.902 c 0,0 3.228,2.898 3.228,5.795 l 9.996,-9.934 c 0,0 -3.957,0.828 -7.497,-2.484 l -3.228,-3.31 c 0,0 -3.538,-2.899 -0.937,-5.383 0,0 8.119,-9.004 17.388,5.278 l 10.203,-10.142 c 0,0 -5.101,1.241 -9.162,-2.174 0,0 -5.207,-4.14 -12.597,-2.482 0,0 0.208,-4.762 -1.666,-9.006 0,0 -1.979,-4.863 -1.561,-9.21 l -8.433,8.383 c 0,0 9.58,7.039 2.706,14.075 0,0 -3.435,4.658 -7.494,-0.414 0,0 -3.022,-3.415 -2.502,-6.314 z m 51.017,-3.446 c 0.004,0 0.008,0 0.012,0 2.936,0 5.353,-2.41 5.362,-5.346 v -0.006 c -0.01,-2.945 -2.435,-5.357 -5.374,-5.351 -2.938,-0.004 -5.362,2.408 -5.37,5.346 v 0.006 c 0.008,2.944 2.432,5.356 5.37,5.351 z m 0.012,-3.676 h -0.011 c -0.926,0.002 -1.686,-0.751 -1.695,-1.67 0.006,-0.927 0.767,-1.683 1.69,-1.68 h 0.005 c 0.926,-0.003 1.688,0.75 1.696,1.671 -0.005,0.924 -0.764,1.679 -1.685,1.679 z"
   style="fill:#ffffff"
   id="path2767" />
            </g></g><g
   inkscape:groupmode="layer"
   id="g2337"
   inkscape:label="F.Cu"
   style="display:inline;fill:#d9e128;fill-opacity:1"><g
     transform="translate(-28.2271,-1.333)"
     id="g2293"
     style="clip-rule:evenodd;fill-rule:evenodd;stroke-linejoin:round;stroke-miterlimit:2;fill:#d9e128;fill-opacity:1">
                <path
   d="m 97.206,122.572 -7.562,25.159 1.761,0.529 7.564,-25.166 c -0.599,-0.146 -1.187,-0.321 -1.763,-0.522 z m -4.691,-2.429 -12.113,18.729 1.544,0.999 12.117,-18.737 c -0.533,-0.306 -1.049,-0.637 -1.548,-0.991 z m 15.318,2.992 c -0.592,0.139 -1.195,0.25 -1.808,0.332 l 1.971,10.552 1.807,-0.338 z m -18.685,-6.058 -13.203,12.4 1.258,1.34 13.212,-12.408 c -0.443,-0.423 -0.866,-0.868 -1.267,-1.332 z m 23.384,4.267 c -0.537,0.293 -1.089,0.559 -1.656,0.799 l 2.982,6.122 1.652,-0.805 z m -26.011,-8.235 -11.829,6.475 0.883,1.612 11.838,-6.48 c -0.322,-0.519 -0.621,-1.055 -0.892,-1.607 z m 33.635,0.574 c -0.29,0.542 -0.607,1.067 -0.947,1.576 l 3.052,1.809 0.937,-1.581 z m 1.7,-4.472 c -0.143,0.6 -0.315,1.189 -0.515,1.765 l 6.997,2.018 0.509,-1.767 z m 0.49,-5.146 c 0.011,0.266 0.017,0.535 0.017,0.806 0,0.346 -0.009,0.69 -0.028,1.032 l 12.793,0.076 0.011,-1.838 z m -37.634,-1.166 -8.155,-0.457 -0.103,1.835 8.155,0.457 c 0.005,-0.62 0.039,-1.232 0.103,-1.835 z m 36.522,-4.437 c 0.209,0.573 0.391,1.159 0.544,1.756 l 20.494,-6.29 -0.54,-1.758 z m -35.046,-1.117 -4.376,-1.655 -0.651,1.719 4.37,1.653 c 0.191,-0.585 0.411,-1.158 0.657,-1.717 z m 2.891,-4.599 -2.678,-2.039 -1.114,1.463 2.668,2.031 c 0.351,-0.503 0.726,-0.989 1.124,-1.455 z m 28.269,-0.613 c 0.417,0.449 0.813,0.918 1.185,1.405 l 8.58,-7.143 -1.176,-1.413 z m -3.05,-2.646 c 0.504,0.351 0.99,0.725 1.457,1.122 l 4.047,-5.199 -1.451,-1.129 z m -16.546,-2.499 -3.665,-9.756 -1.72,0.646 3.661,9.749 c 0.561,-0.239 1.136,-0.453 1.724,-0.639 z m 4.097,-0.812 -2.267,-16.53 -1.822,0.25 2.268,16.524 c 0.597,-0.11 1.205,-0.192 1.821,-0.244 z m 2.684,-0.042 c 0.618,0.034 1.228,0.097 1.829,0.188 l 1.192,-11.332 -1.828,-0.192 z"
   style="fill:#d9e128;fill-opacity:1"
   id="path2291" />
            </g><g
     id="g2329"
     style="clip-rule:evenodd;fill-rule:evenodd;stroke-linejoin:round;stroke-miterlimit:2;fill:#d9e128;fill-opacity:1"><g
       transform="translate(-28.2271,-1.333)"
       id="g2301"
       style="clip-rule:evenodd;fill-rule:evenodd;stroke-linejoin:round;stroke-miterlimit:2;fill:#d9e128;fill-opacity:1">
                <path
   d="m 118.227,37.449 c -0.578,0.112 -1.143,0.23 -1.69,0.357 0,0 -1.492,0.264 -2.702,1.387 l -2.723,-22.043 14.151,-1.727 2.57,20.806 c -1.492,0.118 -3.013,0.264 -4.513,0.443 l -1.012,-8.183 h 0.002 c 0,0 -0.057,-1.3 -1.033,-1.965 -0.416,-0.285 -0.848,-0.46 -1.832,-0.354 -0.44,0.06 -1.3,0.312 -1.723,0.786 -0.764,0.856 -0.539,2.084 -0.525,2.152 z m -3.785,-15.352 2.902,-0.353 -0.356,-2.887 -2.903,0.354 z m 5.788,-0.706 2.902,-0.353 -0.356,-2.886 -2.903,0.353 z m 7.773,-9.535 -20.418,2.493 -0.195,-0.152 c 0,0 -0.837,-6.777 -0.837,-6.777 0,0 4.127,-0.503 4.127,-0.503 0,0 0.496,4.006 0.496,4.006 l 4.243,-0.519 -0.508,-4.109 c 0,0 4.023,-0.491 4.023,-0.491 0,0 0.508,4.11 0.508,4.11 l 4.244,-0.519 -0.494,-4.006 c 0,0 4.126,-0.503 4.126,-0.503 0,0 0.838,6.776 0.838,6.776 z"
   style="fill:#d9e128;fill-opacity:1"
   id="path2299" />
            </g><g
       transform="translate(-28.2271,-1.333)"
       id="g2305"
       style="clip-rule:evenodd;fill-rule:evenodd;stroke-linejoin:round;stroke-miterlimit:2;fill:#d9e128;fill-opacity:1">
                <path
   d="m 160.59,36.719 c -1.508,-0.178 -3.044,-0.325 -4.555,-0.445 l 2.586,-20.921 14.152,1.728 -2.748,22.224 c -1.229,-1.218 -2.819,-1.499 -2.819,-1.499 -0.492,-0.112 -1,-0.217 -1.522,-0.317 l 1.042,-8.441 c 0,0 0.261,-1.275 -0.525,-2.155 -0.335,-0.375 -0.859,-0.68 -1.675,-0.782 -0.004,-0.001 -0.008,-0.002 -0.013,-0.003 -0.006,0 -0.032,-0.003 -0.038,-0.004 -0.005,0 -0.009,0 -0.012,0 -0.817,-0.097 -1.4,0.072 -1.816,0.355 -0.951,0.648 -1.03,1.899 -1.033,1.962 z m 5.845,-15.056 2.901,0.353 0.358,-2.886 -2.904,-0.353 z m -5.787,-0.708 2.901,0.354 0.358,-2.886 -2.903,-0.354 z m 15.651,-6.678 -20.418,-2.49 -0.152,-0.194 c 0,0 0.835,-6.776 0.835,-6.776 0,0 4.127,0.503 4.127,0.503 0,0 -0.494,4.006 -0.494,4.006 l 4.243,0.519 0.508,-4.109 c 0,0 4.024,0.49 4.024,0.49 0,0 -0.509,4.109 -0.509,4.109 l 4.247,0.519 0.494,-4.008 c 0,0 4.126,0.505 4.126,0.505 0,0 -0.838,6.776 -0.838,6.776 z"
   style="fill:#d9e128;fill-opacity:1"
   id="path2303" />
            </g><g
       transform="translate(-28.2271,-1.333)"
       id="g2309"
       style="clip-rule:evenodd;fill-rule:evenodd;stroke-linejoin:round;stroke-miterlimit:2;fill:#d9e128;fill-opacity:1">
                <path
   d="m 148.928,35.869 c -1.78,-0.066 -3.339,-0.1 -4.533,-0.117 v -8.296 c 0.004,-0.064 0.081,-1.314 -0.784,-2.072 -0.38,-0.333 -0.941,-0.573 -1.771,-0.573 v 0.002 l -0.039,-10e-4 c -0.83,0 -1.391,0.24 -1.771,0.573 -0.864,0.759 -0.788,2.009 -0.784,2.073 v 8.281 c -1.217,0.013 -2.788,0.043 -4.574,0.106 V 14.85 h 14.256 z M 137.371,20.164 h 2.925 v -2.907 h -2.925 z m 5.831,0 h 2.925 v -2.907 h -2.925 z m 8.884,-8.523 h -20.57 l -0.175,-0.173 c 0,0 0,-6.828 0,-6.828 0,0 4.157,0 4.157,0 0,0 0,4.036 0,4.036 h 4.275 V 4.535 c 0,0 4.055,0 4.055,0 0,0 0,4.141 0,4.141 h 4.276 V 4.64 c 0,0 4.156,0 4.156,0 0,0 0,6.828 0,6.828 z"
   style="fill:#d9e128;fill-opacity:1"
   id="path2307" />
            </g><path
       d="m 1014.77,381.668 c 0,0 223.31,-51.376 472.91,-0.848 7.01,1.42 13.86,-3.123 15.28,-10.139 1.42,-7.016 -3.12,-13.865 -10.13,-15.285 -255.4,-51.7 -483.88,0.994 -483.88,0.994 -6.97,1.607 -11.333,8.575 -9.727,15.55 1.607,6.976 8.577,11.334 15.547,9.728 z"
       style="clip-rule:evenodd;fill:#d9e128;fill-rule:evenodd;stroke-linejoin:round;stroke-miterlimit:2;fill-opacity:1"
       id="path2311"
       transform="matrix(0.113386,0,0,0.113386,-28.2271,-1.333)" /><g
       transform="translate(-28.2271,-1.8430964)"
       id="g2315"
       style="clip-rule:evenodd;fill-rule:evenodd;stroke-linejoin:round;stroke-miterlimit:2;fill:#d9e128;fill-opacity:1">
                <path
   d="m 132.065,45.74 c -0.141,-0.023 -0.287,-0.029 -0.436,-0.017 -0.483,0.038 -0.963,0.08 -1.438,0.124 -0.148,0.014 -0.29,0.045 -0.425,0.092 -0.142,-0.02 -0.287,-0.023 -0.435,-0.008 -0.484,0.049 -0.962,0.101 -1.432,0.155 -0.148,0.016 -0.29,0.05 -0.423,0.1 -0.142,-0.017 -0.287,-0.017 -0.435,10e-4 -0.486,0.059 -0.962,0.119 -1.427,0.181 -0.147,0.02 -0.288,0.056 -0.421,0.108 -0.141,-0.014 -0.287,-0.012 -0.434,0.009 -0.489,0.069 -0.964,0.138 -1.422,0.207 -0.147,0.022 -0.287,0.061 -0.418,0.115 -0.142,-0.012 -0.287,-0.007 -0.434,0.017 -0.497,0.078 -0.971,0.155 -1.418,0.231 -0.146,0.025 -0.286,0.066 -0.417,0.122 -0.142,-0.009 -0.287,-0.002 -0.433,0.024 -0.519,0.091 -0.993,0.178 -1.415,0.257 -0.146,0.027 -0.285,0.071 -0.415,0.13 -0.143,-0.007 -0.288,0.003 -0.434,0.032 -0.915,0.178 -1.431,0.292 -1.431,0.292 -0.991,0.217 -1.619,1.199 -1.401,2.19 0.217,0.99 1.198,1.618 2.189,1.401 0,0 0.487,-0.107 1.347,-0.275 0.141,-0.027 0.275,-0.07 0.401,-0.127 0.138,0.006 0.279,-0.003 0.42,-0.03 0.41,-0.076 0.87,-0.16 1.374,-0.249 0.142,-0.025 0.278,-0.065 0.405,-0.12 0.138,0.009 0.279,0.002 0.421,-0.022 0.435,-0.073 0.896,-0.149 1.38,-0.225 0.142,-0.022 0.278,-0.061 0.406,-0.113 0.138,0.011 0.28,0.007 0.422,-0.015 0.446,-0.067 0.907,-0.134 1.383,-0.201 0.143,-0.02 0.28,-0.056 0.408,-0.106 0.138,0.014 0.279,0.012 0.422,-0.007 0.452,-0.06 0.914,-0.119 1.385,-0.177 0.143,-0.017 0.28,-0.051 0.41,-0.098 0.137,0.016 0.279,0.017 0.422,0 0.455,-0.052 0.917,-0.102 1.386,-0.149 0.143,-0.015 0.281,-0.045 0.411,-0.091 0.136,0.02 0.277,0.023 0.421,0.01 0.457,-0.043 0.92,-0.083 1.386,-0.12 0.143,-0.012 0.281,-0.039 0.412,-0.082 0.136,0.023 0.277,0.029 0.42,0.019 0.31,-0.022 0.621,-0.042 0.933,-0.061 1.013,-0.06 1.786,-0.932 1.725,-1.945 -0.061,-1.012 -0.932,-1.785 -1.945,-1.725 -0.325,0.02 -0.649,0.041 -0.972,0.064 -0.149,0.01 -0.292,0.038 -0.428,0.082 z"
   style="fill:#d9e128;fill-opacity:1"
   id="path2313" />
            </g><g
       transform="matrix(0.113386,0,0,0.113386,-28.2271,-1.8430964)"
       id="g2319"
       style="clip-rule:evenodd;fill-rule:evenodd;stroke-linejoin:round;stroke-miterlimit:2;fill:#d9e128;fill-opacity:1">
                <path
   d="m 1310.12,432.879 c 1.17,0.344 2.4,0.556 3.66,0.624 3.66,0.196 7.78,0.437 12.29,0.731 1.27,0.083 2.52,0.017 3.72,-0.187 1.16,0.367 2.39,0.602 3.66,0.693 3.87,0.278 7.97,0.593 12.29,0.949 1.27,0.104 2.51,0.06 3.72,-0.125 1.16,0.387 2.38,0.643 3.65,0.756 3.95,0.351 8.05,0.734 12.28,1.154 1.26,0.126 2.51,0.102 3.72,-0.063 1.15,0.407 2.37,0.683 3.64,0.817 3.98,0.421 8.07,0.873 12.25,1.359 1.26,0.148 2.51,0.145 3.72,0.001 1.14,0.426 2.36,0.723 3.62,0.878 4,0.493 8.08,1.016 12.22,1.572 1.26,0.169 2.5,0.189 3.72,0.067 1.13,0.446 2.34,0.764 3.59,0.942 4.01,0.567 8.07,1.165 12.18,1.795 1.25,0.193 2.5,0.236 3.71,0.138 1.13,0.467 2.32,0.808 3.58,1.01 4.01,0.646 8.05,1.324 12.12,2.034 1.25,0.218 2.49,0.286 3.7,0.213 1.12,0.489 2.3,0.855 3.55,1.083 4,0.731 8.02,1.495 12.05,2.292 1.25,0.245 2.48,0.342 3.7,0.296 1.1,0.513 2.27,0.905 3.51,1.162 0.46,0.094 0.91,0.188 1.37,0.283 8.76,1.829 17.35,-3.798 19.18,-12.557 1.83,-8.759 -3.8,-17.354 -12.56,-19.183 -0.47,-0.099 -0.94,-0.197 -1.42,-0.295 -1.29,-0.267 -2.57,-0.372 -3.83,-0.326 -1.14,-0.532 -2.37,-0.934 -3.66,-1.189 -4.18,-0.827 -8.36,-1.62 -12.51,-2.379 -1.29,-0.236 -2.57,-0.312 -3.83,-0.237 -1.15,-0.505 -2.38,-0.879 -3.68,-1.105 -4.2,-0.734 -8.39,-1.435 -12.53,-2.103 -1.3,-0.209 -2.58,-0.258 -3.83,-0.157 -1.17,-0.481 -2.4,-0.829 -3.7,-1.028 -4.23,-0.65 -8.42,-1.267 -12.56,-1.852 -1.29,-0.183 -2.58,-0.207 -3.83,-0.083 -1.17,-0.458 -2.41,-0.782 -3.71,-0.956 -4.25,-0.573 -8.45,-1.112 -12.57,-1.619 -1.3,-0.159 -2.59,-0.161 -3.83,-0.014 -1.18,-0.437 -2.42,-0.738 -3.72,-0.89 -4.3,-0.499 -8.5,-0.964 -12.6,-1.397 -1.3,-0.138 -2.58,-0.117 -3.82,0.051 -1.19,-0.416 -2.44,-0.697 -3.74,-0.826 -4.34,-0.431 -8.55,-0.825 -12.61,-1.186 -1.31,-0.115 -2.59,-0.073 -3.83,0.116 -1.19,-0.397 -2.44,-0.656 -3.75,-0.764 -4.43,-0.366 -8.65,-0.689 -12.63,-0.975 -1.31,-0.094 -2.59,-0.03 -3.82,0.18 -1.2,-0.377 -2.46,-0.615 -3.77,-0.7 -4.65,-0.304 -8.89,-0.552 -12.66,-0.754 -1.32,-0.07 -2.6,0.018 -3.83,0.251 -1.21,-0.355 -2.48,-0.569 -3.79,-0.629 -8.27,-0.376 -12.9,-0.471 -12.9,-0.471 -8.94,-0.185 -16.36,6.927 -16.54,15.873 -0.19,8.946 6.93,16.359 15.87,16.545 0,0 4.34,0.091 12.09,0.444 1.27,0.058 2.51,-0.032 3.7,-0.259 z"
   style="fill:#d9e128;fill-opacity:1"
   id="path2317" />
            </g><g
       transform="matrix(0.113386,0,0,0.113386,-28.2271,-3.0871948)"
       id="g2323"
       style="clip-rule:evenodd;fill-rule:evenodd;stroke-linejoin:round;stroke-miterlimit:2;fill:#d9e128;fill-opacity:1">
                <path
   d="m 1047.24,556.659 c 0,0 162.07,-55.047 413.11,0.117 17.48,3.84 34.79,-7.232 38.63,-24.71 3.84,-17.479 -7.23,-34.787 -24.71,-38.628 -272.38,-59.852 -448.22,1.932 -448.22,1.932 -16.91,5.848 -25.9,24.327 -20.05,41.24 5.85,16.913 24.33,25.897 41.24,20.049 z"
   style="fill:#d9e128;fill-opacity:1"
   id="path2321" />
            </g><g
       transform="translate(-28.2271,-4.0673374)"
       id="g2327"
       style="clip-rule:evenodd;fill-rule:evenodd;stroke-linejoin:round;stroke-miterlimit:2;fill:#d9e128;fill-opacity:1">
                <path
   d="m 140.63,72.817 v -8.516 c 0.721,-0.003 1.456,0 2.206,0.012 v 8.572 c -0.663,0.332 -1.035,0.524 -1.035,0.524 0,0 -0.422,-0.218 -1.171,-0.592 z m 4.996,-1.301 V 64.39 c 0.723,0.029 1.459,0.065 2.206,0.109 v 5.969 c -0.796,0.373 -1.536,0.725 -2.206,1.048 z m -7.787,-0.064 c -0.673,-0.323 -1.413,-0.675 -2.206,-1.045 v -5.962 c 0.717,-0.038 1.452,-0.069 2.206,-0.093 z m 12.785,-2.266 v -4.49 c 0.725,0.06 1.461,0.127 2.206,0.202 v 3.312 c -0.755,0.328 -1.492,0.655 -2.206,0.976 z M 132.84,69.129 c -0.713,-0.32 -1.451,-0.646 -2.206,-0.973 v -3.314 c 0.712,-0.076 1.448,-0.146 2.206,-0.208 z m 22.781,-2.102 v -1.818 c 0.727,0.089 1.462,0.186 2.206,0.29 v 0.64 c -0.738,0.289 -1.475,0.586 -2.206,0.888 z m -27.778,-0.051 c -0.73,-0.3 -1.467,-0.596 -2.206,-0.885 v -0.568 c 0.7,-0.118 1.436,-0.231 2.206,-0.338 z"
   style="fill:#d9e128;fill-opacity:1"
   id="path2325" />
            </g></g><g
     id="g2335"
     style="clip-rule:evenodd;fill-rule:evenodd;stroke-linejoin:round;stroke-miterlimit:2;fill:#d9e128;fill-opacity:1"><path
       d="m 1568.24,1745.2 1.91,0.03 c 40.89,0 73.99,-33.01 73.99,-73.67 0,-23.61 -11.16,-44.64 -28.52,-58.12 8.23,-10.07 13.21,-22.89 13.24,-36.79 v -0.02 c 0,-32.3 -26.25,-58.49 -58.71,-58.49 -32.47,0 -58.72,26.19 -58.72,58.47 v 0.02 c 0.03,13.9 5.01,26.73 13.25,36.81 -17.37,13.48 -28.53,34.51 -28.53,58.12 0,40.02 32.08,72.63 72.09,73.64 z m 1.91,-38.88 c 19.34,0 35.08,-15.53 35.08,-34.76 0,-19.24 -15.74,-34.76 -35.08,-34.76 -19.34,0 -35.09,15.52 -35.09,34.76 0,19.23 15.75,34.76 35.09,34.76 z m 0.05,-108.43 0.01,-1.7 c 0.02,0 0.04,0 0.07,0 10.76,0 19.63,-8.84 19.67,-19.62 -0.02,-10.83 -8.91,-19.52 -19.8,-19.52 -10.9,0 -19.8,8.7 -19.81,19.55 0.05,10.76 8.91,19.59 19.68,19.59 0.02,0 0.04,0 0.06,0 l 0.01,1.7 h 0.06 z"
       style="clip-rule:evenodd;fill:#d9e128;fill-rule:evenodd;stroke-linejoin:round;stroke-miterlimit:2;fill-opacity:1"
       id="path2331"
       transform="matrix(0.113386,0,0,0.113386,-28.2271,-1.333)" /><path
       d="m 1459.95,1719.03 v -133.27 l -44.07,36.5 h 23.89 v 96.77 z m 418.75,0 v -133.27 l -44.09,36.5 h 23.87 v 96.77 z m -151.52,-125.98 c 36.73,-0.45 35.8,51.11 35.8,51.11 0,63.44 -37.64,57.97 -37.64,57.97 -37.18,0 -33.51,-61.16 -33.51,-61.16 -0.01,-49.73 35.35,-47.92 35.35,-47.92 z m 61.05,58.42 c 0,0 8.26,-77.13 -63.81,-77.13 0,0 -55.09,-2.74 -55.09,74.39 0,0 -2.77,71.66 52.33,71.66 0,0 20.22,1.36 24.8,-6.84 0,0 0.45,20.97 -37.19,43.35 0,0 78.96,12.33 78.96,-105.43 z"
       style="clip-rule:evenodd;fill:#d9e128;fill-rule:evenodd;stroke-linejoin:round;stroke-miterlimit:2;fill-opacity:1"
       id="path2333"
       transform="matrix(0.113386,0,0,0.113386,-28.2271,-1.333)" /></g><path
     id="path2566"
     style="clip-rule:evenodd;fill:#774444;fill-opacity:1;fill-rule:evenodd;stroke-linejoin:round;stroke-miterlimit:2"
     d="m 40.716259,62.668953 c 1.28369,5.794584 2.846222,11.585909 5.431522,16.9502 0.365393,0.855309 1.078704,1.583864 0.99325,2.570784 0.322251,0.987573 -0.586815,1.686002 -1.175087,2.340757 l -7.163747,7.677322 c -0.821453,0.233972 -1.603725,0.80038 -2.483353,0.526868 -5.156863,-0.554617 -10.334425,-0.78388 -15.474607,-0.882089 -1.617952,-0.03142 -3.236274,-0.04794 -4.85454,-0.04517 L 7.911572,111.79981 c 5.363654,-0.50972 11.024797,1.03099 15.015378,4.74568 4.483574,4.08834 6.692258,10.03959 7.739273,15.88568 0.795858,4.48603 0.969736,9.06132 0.893602,13.60768 -0.489483,7.76215 -2.915096,15.26575 -5.936839,22.38363 -4.357608,10.07117 -10.232459,19.42313 -16.811024,28.18202 6.593362,7.48631 13.774794,14.49096 21.682619,20.58591 5.72931,4.32805 11.889655,8.32873 18.813475,10.43362 4.368229,1.3041 9.310757,1.64016 13.493428,-0.46135 0.977078,-0.51103 1.991736,-1.06809 2.769267,-1.83927 0.946228,-2.37131 1.846431,-4.93897 1.476844,-7.52714 -0.253889,-2.14327 -2.24699,-3.76029 -4.33985,-3.88729 -1.34215,-0.0316 -2.77753,0.70826 -3.110626,2.092 -0.418843,1.6788 -0.291683,3.6226 0.701172,5.08399 0.192623,0.43774 0.841397,0.54941 0.760865,0.98227 0.08474,0.6907 0.357191,1.41097 0.329903,2.08402 -0.354281,0.54993 -0.497456,1.35096 -1.263683,1.42817 -4.142186,1.42694 -8.63663,0.34787 -12.574521,-1.2171 -6.949405,-2.86674 -13.089768,-7.33127 -18.941054,-11.98167 -5.804315,-4.7043 -11.308726,-9.77761 -16.50487,-15.1453 -0.144377,-0.70862 -0.79347,-1.42574 -0.328597,-2.1241 0.493254,-1.13212 1.436383,-2.01491 2.098795,-3.05687 7.919753,-10.98788 14.382736,-23.23214 17.554532,-36.46499 1.099307,-4.6561 1.777022,-9.44239 1.551218,-14.23525 -0.176853,-7.16071 -1.254719,-14.54304 -4.844698,-20.85317 -3.102744,-5.54872 -8.827854,-9.84819 -15.287438,-10.26717 -0.513101,-0.27984 -0.825757,-0.9645 -1.263394,-1.39674 -0.473779,-0.45398 -0.900285,-1.11682 -0.504791,-1.76104 1.515937,-4.16694 3.031874,-8.33388 4.547811,-12.500827 0.584136,-0.494999 0.979376,-1.346267 1.846941,-1.306701 6.565698,0.02126 13.202534,0.389408 19.587862,2.024607 0.619207,0.429495 0.941383,-0.253203 1.349743,-0.619822 L 50.386181,82.545906 c -3.247358,-5.516512 -6.0271,-11.425926 -7.248047,-17.746094 -0.204537,-0.635378 -0.06757,-1.239443 0.232404,-1.819164 0.146029,-0.613036 0.480719,-1.091914 1.014075,-1.429516 L 58.968212,49.163094 c 0.995128,0.158591 2.003116,0.283039 2.990235,0.46289 2.801301,4.767636 7.110865,8.536841 12.041573,10.98866 4.63758,2.390616 9.7021,3.731939 14.67057,5.234105 8.4329,2.826882 16.51896,6.579766 24.52242,10.434318 0.54783,0.430425 1.09696,-0.283929 1.64543,-0.421811 7.83661,-3.720709 15.74771,-7.352325 23.99277,-10.083552 5.83232,-1.725656 11.80665,-3.360103 17.01688,-6.604867 3.86763,-2.354887 7.16118,-5.645663 9.47169,-9.544899 0.99713,-0.150223 1.99634,-0.343062 2.99218,-0.466797 5.09115,4.323567 10.18229,8.647135 15.27344,12.970703 0.27171,0.862068 0.90229,1.688168 0.56836,2.61914 -1.20151,6.291248 -3.96228,12.174308 -7.18187,17.669506 0.0216,0.488554 0.80498,0.882928 1.12038,1.33516 3.85057,3.900137 7.70115,7.800275 11.55172,11.700412 6.07008,-1.671639 12.40711,-2.077768 18.6765,-2.182374 0.77943,-0.01375 1.57705,-0.115904 2.258,0.34896 1.06538,0.216516 1.19842,1.421612 1.55585,2.268196 1.41338,3.885026 2.82675,7.770046 4.24012,11.655066 -0.4785,0.79514 -0.85313,1.68961 -1.3939,2.42521 -0.68095,0.47984 -1.59646,0.22985 -2.37468,0.48212 -5.44373,1.00197 -10.16574,4.63467 -13.01462,9.31532 -3.70743,6.02396 -4.93331,13.20073 -5.24414,20.16797 -0.0149,0.49575 -0.0507,1.3424 -0.0517,1.97654 -0.23094,6.65183 1.22208,13.24102 3.19421,19.55651 2.83467,8.85746 7.06105,17.22598 12.10751,25.02164 0.38671,0.59549 0.83616,1.28607 1.24882,1.88894 1.43402,2.13459 2.93692,4.22234 4.48555,6.27512 0.0594,0.72053 0.61844,1.50901 0.0748,2.14749 -0.62641,1.07533 -1.68359,1.83735 -2.51417,2.75862 -7.25112,7.16869 -14.94003,13.96659 -23.46296,19.59584 -4.73305,3.02514 -9.78276,5.86849 -15.38046,6.85322 -2.49802,0.4204 -5.14727,0.32941 -7.50431,-0.66767 -0.21964,-0.77196 -0.62387,-1.54567 -0.73126,-2.31657 0.23458,-0.4199 0.24869,-1.08665 0.5724,-1.3314 1.48678,-1.22027 1.67104,-3.37936 1.43112,-5.16393 -0.14813,-1.36884 -1.29402,-2.49516 -2.67773,-2.57423 -1.53571,-0.20603 -3.12062,0.62404 -4.06595,1.81039 -1.30585,1.80262 -0.94502,4.17263 -0.7474,6.24598 0.20781,1.15482 0.44701,2.41432 1.19324,3.33811 3.14035,2.64661 7.40007,3.67652 11.43973,3.23852 6.19018,-0.65917 11.87683,-3.54308 17.09018,-6.79228 8.87014,-5.67295 16.67857,-12.84436 23.93413,-20.4345 1.4728,-1.5586 2.92641,-3.13614 4.32912,-4.75837 -8.01277,-10.69553 -15.06279,-22.28743 -19.43094,-34.9733 -1.86769,-5.60839 -3.33956,-11.44975 -3.34916,-17.3946 0.0544,-6.74455 0.60527,-13.65954 3.29375,-19.92644 2.02199,-4.8088 5.67893,-9.10003 10.58746,-11.09003 3.08094,-1.29141 6.48703,-1.70645 9.80319,-1.42032 l -8.07813,-19.992185 c -6.06767,0.0056 -12.03824,0.178634 -18.09168,0.702484 -1.07788,0.100056 -1.94229,0.181752 -3.00793,0.317047 -0.78851,-0.347391 -1.7632,-0.412686 -2.25874,-1.203985 -2.47951,-2.656614 -4.95901,-5.313228 -7.43852,-7.969843 -0.17327,-0.745032 -0.76386,-1.487887 -0.31143,-2.236181 2.21607,-3.928387 3.63995,-8.248506 4.86807,-12.574366 0.26642,-0.999497 0.60893,-2.252207 0.87097,-3.359149 0.22749,-0.934496 0.44416,-1.871632 0.6427,-2.812726 -6.77344,-5.910807 -13.54687,-11.821614 -20.32031,-17.732422 -2.56294,5.786649 -7.06013,10.652707 -12.57757,13.739695 -4.57371,2.642265 -9.7017,4.100963 -14.83407,5.202205 -6.22526,1.657124 -12.14041,4.279433 -17.98343,6.954023 -2.08747,0.97926 -4.16452,1.981385 -6.22017,3.025952 -0.85469,-0.05771 -1.78712,0.209063 -2.51953,-0.361328 -1.89071,-0.944573 -3.72179,-1.828012 -5.67359,-2.73867 -3.70289,-1.721174 -7.32641,-3.286143 -11.16237,-4.733986 -3.21531,-1.232742 -6.52648,-2.194558 -9.89711,-2.896356 -6.88667,-1.657182 -13.670878,-4.674427 -18.616566,-9.877081 -2.315497,-2.42686 -4.191237,-5.260919 -5.570312,-8.316407 z M 77.23579,223.02247 c -2.29576,0.27579 -3.76395,2.36742 -4.84663,4.20889 -0.352,0.70755 -0.813232,1.41237 -1.003209,2.16974 0.932349,6.77113 4.329759,12.934 8.380959,18.33435 6.73764,8.83607 15.46148,15.93463 24.61151,22.13794 2.99956,2.02194 6.06639,3.94412 9.1855,5.77603 10.52519,-6.23225 20.66243,-13.36113 29.06856,-22.31043 5.26574,-5.68482 9.93001,-12.19694 12.19696,-19.68666 0.35272,-1.29178 0.74154,-2.6152 0.83056,-3.94491 -0.72483,-2.3497 -1.75815,-4.89785 -3.97108,-6.21034 -1.71627,-0.94618 -3.91684,-0.34778 -5.3379,0.86719 -1.74611,1.71557 -1.5455,4.95051 0.30889,6.50677 0.71706,0.61459 1.71385,0.56051 2.55978,0.74998 0.55436,0.35872 1.42359,0.42656 1.52621,1.20261 0.50854,1.16187 0.11227,2.48442 -0.0749,3.68444 -1.2608,5.31124 -4.47207,9.90925 -7.98206,13.99096 -6.6709,7.54334 -14.87644,13.54442 -23.34509,18.90923 -1.54348,0.97275 -4.67445,2.84663 -4.67445,2.84663 l -0.95703,0.32422 -1.09373,-0.32422 c 0,0 -18.53505,-11.81009 -26.14843,-19.70808 -4.09017,-4.34007 -7.87028,-9.25013 -9.60547,-15.03801 -0.34229,-1.36038 -0.70076,-2.80556 -0.50139,-4.20132 0.40257,-0.56033 0.4919,-1.48598 1.30315,-1.5697 0.94121,-0.38376 2.09105,-0.12856 2.92327,-0.83908 1.94885,-1.58711 2.11903,-5.03898 0.16169,-6.69264 -0.97638,-0.77719 -2.27534,-1.19035 -3.51563,-1.18359 z"
     sodipodi:nodetypes="ccccccccccccccccccccccccccccccccccccccccccccccccccccccccccccccccccccccccccccccccccccccccccccccccccccccccccccccccccscccccccccccccccccccccccccss" /><g
     transform="translate(-28.2271,-1.333)"
     id="g2767"
     style="clip-rule:evenodd;fill-rule:evenodd;stroke-linejoin:round;stroke-miterlimit:2">
                <path
   d="m 90.567,209.275 c -7.954,0.017 -8.599,5.728 -8.853,7.943 -0.155,1.346 -0.007,2.947 0.117,3.922 -4.347,-1.096 -8.789,-3.422 -12.741,-5.952 -7.205,-4.614 -12.792,-9.977 -13.312,-10.482 l -0.022,-0.022 143.976,-143.118 0.12,0.103 c 0.008,0.007 6.169,5.233 6.169,5.233 -0.636,2.504 -2.693,9.076 -8.145,16.506 l -1.012,1.38 17.753,17.666 -113.956,113.275 c -2.696,-6.436 -10.094,-6.454 -10.094,-6.454 z m 10.618,-45.257 c 28.181,16.699 33.179,14.766 33.179,14.766 l -9.579,9.659 c -3.193,-7.588 -6.664,-4.001 -6.664,-4.001 l -6.664,6.623 c -4.859,4.693 2.638,7.865 2.638,7.865 l -9.44,9.248 c 0,-7.867 -2.498,-13.25 -2.498,-13.25 -7.636,-22.63 -10.69,-21.389 -10.69,-21.389 z m -0.277,9.797 5.691,12.283 6.247,-6.211 z m 36.198,2.231 h 0.02 c 2.936,0 5.354,-2.411 5.362,-5.347 v -0.002 c 0,-2.957 -2.402,-5.354 -5.372,-5.354 -2.969,0 -5.372,2.395 -5.372,5.351 v 0.003 c 0.009,2.938 2.426,5.349 5.362,5.349 z m 0.02,-3.677 h -0.02 c -0.922,0 -1.681,-0.756 -1.685,-1.677 0.001,-0.929 0.763,-1.673 1.695,-1.673 0.932,0 1.694,0.745 1.696,1.671 -0.004,0.923 -0.764,1.679 -1.686,1.679 z M 123.615,141.44 c 0,0 2.498,-0.552 5.692,2.62 l 16.519,16.562 c 0,0 1.805,1.929 1.805,4.966 l 9.857,-9.797 c 0,0 -2.637,0.413 -4.86,-1.793 l -16.659,-16.56 c 0,0 -2.082,-1.931 -2.637,-5.381 z m 35.573,12.664 c 2.968,0 5.371,-2.399 5.371,-5.351 0,-2.952 -2.403,-5.352 -5.371,-5.352 -2.972,0 -5.37,2.4 -5.37,5.352 0,2.952 2.398,5.351 5.37,5.351 z m 0,-3.676 c -0.934,0 -1.694,-0.748 -1.694,-1.675 0,-0.928 0.76,-1.675 1.694,-1.675 0.933,0 1.694,0.747 1.694,1.675 0,0.927 -0.761,1.675 -1.694,1.675 z m -14.057,-30.447 c 0,0 2.082,-0.415 5.937,3.415 l 14.886,14.902 c 0,0 3.228,2.898 3.228,5.795 l 9.996,-9.934 c 0,0 -3.957,0.828 -7.497,-2.484 l -3.228,-3.31 c 0,0 -3.538,-2.899 -0.937,-5.383 0,0 8.119,-9.004 17.388,5.278 l 10.203,-10.142 c 0,0 -5.101,1.241 -9.162,-2.174 0,0 -5.207,-4.14 -12.597,-2.482 0,0 0.208,-4.762 -1.666,-9.006 0,0 -1.979,-4.863 -1.561,-9.21 l -8.433,8.383 c 0,0 9.58,7.039 2.706,14.075 0,0 -3.435,4.658 -7.494,-0.414 0,0 -3.022,-3.415 -2.502,-6.314 z m 51.017,-3.446 c 0.004,0 0.008,0 0.012,0 2.936,0 5.353,-2.41 5.362,-5.346 v -0.006 c -0.01,-2.945 -2.435,-5.357 -5.374,-5.351 -2.938,-0.004 -5.362,2.408 -5.37,5.346 v 0.006 c 0.008,2.944 2.432,5.356 5.37,5.351 z m 0.012,-3.676 h -0.011 c -0.926,0.002 -1.686,-0.751 -1.695,-1.67 0.006,-0.927 0.767,-1.683 1.69,-1.68 h 0.005 c 0.926,-0.003 1.688,0.75 1.696,1.671 -0.005,0.924 -0.764,1.679 -1.685,1.679 z"
   style="fill:#ffffff"
   id="path2765" />
            </g></g></svg>
